<svg width="368" height="268" viewBox="0 0 368 268" xmlns="http://www.w3.org/2000/svg"><title>LOGO MONTESERRAT - WHITE</title><g fill="#FFF" fill-rule="evenodd"><path d="M214.73 12c-14.366 6.063-27.295 14.563-38.537 24.563-5.31 4.75-10.305 9.812-14.802 15.187.063-.375.126-.688.188-1.063.625-4.124.937-8.437.75-12.874-.188-4.438-.812-9.063-2.436-13.876-1.686-4.75-4.497-9.937-9.306-13.937-2.373-2-5.12-3.563-7.932-4.688-2.873-1.062-5.746-1.687-8.494-1.937-5.56-.5-10.43.313-15.052 1.375-4.247 1.063-8.245 2.438-12.242 4-15.99 6.375-29.917 16.875-40.722 29.375-5.433 6.25-10.18 13-14.115 20.125-3.936 7.125-7.246 14.563-9.307 22.5-.375 1.5.188 3.188 1.562 4.125 1.748 1.25 4.184.813 5.433-.938l.063-.062C58.4 71.625 68.394 60.437 79.2 51.062c10.867-9.374 22.86-16.937 35.663-21.75 3.186-1.187 6.496-2.25 9.744-3.062 2.873-.813 5.684-1.125 7.87-1.063 2.248.125 3.622.563 4.934 1.313 1.25.813 2.748 2.313 3.934 4.75 2.5 4.75 3.873 11.75 4.685 18.813.75 7.124 1 14.75 1.124 22.25-.56 1.25-.436 2.75.5 3.874 1.25 1.5 3.498 1.688 5.06.438l1.25-1.063c21.234-17.937 44.593-33.124 69.263-41.25 12.242-4.062 25.045-6.25 37.35-6.25 6.12 0 11.43.813 15.49 2.75 3.996 1.875 6.744 4.5 8.805 8.688 2 4.125 3.185 9.75 3.435 15.75s-.187 12.5-1.124 19c-.938 6.5-2.25 13.125-3.936 19.813l-2.623 10.124-.686 2.688c-.25.938-.5 1.938-.812 3.5-.437 2.563-.625 5.813.062 9.125.687 3.375 2.5 7 5.184 9.625 2.686 2.625 5.87 4.188 8.682 4.938 5.746 1.5 10.493.937 14.802.125 8.557-1.813 15.552-5.375 22.11-9.375 6.495-4 12.49-8.5 17.987-13.376 5.558-4.874 10.742-10.062 15.55-15.5 1.188-1.312 1.313-3.312.25-4.812-1.248-1.75-3.684-2.125-5.37-.875-5.746 4.125-11.492 8.063-17.426 11.688-5.933 3.562-11.93 6.874-17.987 9.562-6.06 2.625-12.367 4.625-17.863 5.125-2.686.25-5.246-.063-6.37-.625-.563-.25-.563-.5-.375-.438.186.063.436.376.498.25.063-.187.063-.562.375-1.5l1.437-4.062c1.186-3.313 2.435-6.813 3.56-10.313 2.248-7.062 4.372-14.312 5.87-21.812 1.5-7.5 2.56-15.313 2.56-23.563-.06-8.187-1.06-17-5.058-25.812-1.998-4.375-4.746-8.688-8.37-12.375-3.56-3.688-7.806-6.688-12.24-8.75-8.87-4.25-18.05-5.313-26.107-5.375-16.177.375-31.79 3.75-46.156 9.75M4.625 140c-.313-.125-.375-.25-.313-.563l.25-1.062c.063-.313.312-.438.687-.25 1.186.5 2.997 1 4.808 1 3.123 0 4.685-1.5 4.685-4v-.375c0-2.375-.75-3.25-3.498-3.875l-2.186-.5c-3.186-.75-4.685-2.313-4.685-5.375v-.5c0-3.563 2.498-5.438 6.308-5.438 1.874 0 3.435.25 4.747.626.437.124.5.312.437.75l-.25.812c-.125.375-.375.438-.812.313-1.436-.438-2.498-.626-4.06-.626-2.685 0-4.122 1.25-4.122 3.626v.312c0 2.375 1.25 3.063 3.435 3.563l2.06.5c3.624.875 4.873 2.25 4.873 5.5v.5c0 4.062-2.497 6.062-6.87 6.062-2.248 0-3.996-.375-5.495-1zM31.918 124.5c.25 0 .375.188.375.438v11.124c0 1.625-.5 2.938-1.437 3.75-.936.813-2.186 1.188-4.496 1.188-2.186 0-3.56-.375-4.497-1.188-1-.875-1.5-2.125-1.5-3.75v-11c0-.312.188-.5.438-.5h1.25c.312 0 .437.25.437.438v10.75c0 1.313.25 2 .875 2.563.687.625 1.56.812 2.998.812 1.498 0 2.373-.25 3.06-.938.562-.5.75-1.125.75-2.437v-10.813c0-.25.187-.437.374-.437h1.374zM38.788 139.25h-.062v6.938c0 .25-.125.375-.312.375h-1.5c-.25 0-.312-.125-.312-.375v-21.313c0-.25.125-.375.313-.375h1c.25 0 .374.125.374.375l.186 1.313h.063c.873-1.188 2.434-2 4.808-2 4.372 0 6.058 2.312 6.058 7.374v1.688c0 4.75-1.374 7.688-6.058 7.688-2.56.062-3.748-.688-4.56-1.688zm-.062-9.063v4.688c0 2.813 1.624 4.25 4.372 4.25 1.56 0 2.498-.313 3.185-1.25.75-.938.875-2.25.875-4.75v-1.25c0-2.25-.188-3.75-1-4.75-.624-.75-1.624-1.125-3.123-1.125-3.06.063-4.31 1.563-4.31 4.188zM64.27 132.563c0 .937-.312 1.25-1.248 1.25h-8.494c.124 3.937 1.25 5.312 4.31 5.312 1.248 0 2.56-.25 3.622-.688.437-.187.687-.125.81.25l.25.75c.126.313.126.563-.748.875-1.187.438-2.436.625-3.935.625-4.872 0-6.495-2.437-6.495-7.75v-1.312c0-5.188 1.56-7.75 6.183-7.75 1.936 0 3.31.438 4.247 1.375 1 .938 1.436 2.188 1.436 4.313v2.75h.063zm-9.742-.625h7.12c.312 0 .437-.063.437-.5v-1.25c0-1.563-.188-2.375-.75-3.063-.562-.688-1.436-1.063-2.748-1.063-2.81 0-3.997 1.25-4.06 5.876zM68.705 140.688c-.375 0-.5-.125-.5-.438v-15.375c0-.25.125-.375.375-.375h.937c.312 0 .375.125.375.375l.125 1.688h.062c.624-1.063 1.81-2.063 3.81-2.063h.873c.313 0 .438.125.438.375V126c0 .25-.124.375-.437.375h-.874c-1.687 0-2.5.5-3 1.375-.436.688-.623 1.563-.623 2.625v9.938c0 .25-.188.437-.563.437h-1v-.063zM78.136 124.875c0-.25.125-.375.375-.375h.938c.25 0 .374.125.374.375l.188 1.313h.062c.313-.5.812-.938 1.374-1.25.875-.5 1.937-.75 3.06-.75 2.56 0 3.936.75 4.935 2.25h.063c1.062-1.438 2.81-2.25 5.122-2.25 2.06 0 3.435.5 4.372 1.562.937 1.063 1.31 2.75 1.31 4.938v9.5c0 .375-.186.5-.498.5h-1.126c-.312 0-.5-.125-.5-.5v-9.625c0-1.625-.25-2.563-.81-3.313-.626-.75-1.625-1.188-3.062-1.188-1.748 0-3.122.626-4.184 2 .125.875.187 1.625.187 2.625v9.5c0 .375-.125.5-.5.5h-1.124c-.373 0-.498-.125-.498-.5v-9.625c0-1.75-.313-2.75-1-3.437-.687-.688-1.686-1-3.122-1-1.5 0-2.56.438-3.186 1.375-.374.625-.624 1.25-.624 2.563v10.187c0 .313-.125.5-.5.5h-1.187c-.374 0-.5-.125-.5-.5v-15.375h.063zM115.798 132.563c0 .937-.313 1.25-1.25 1.25h-8.494c.125 3.937 1.25 5.312 4.31 5.312 1.25 0 2.56-.25 3.622-.688.438-.187.687-.125.812.25l.25.75c.125.313.125.563-.75.875-1.186.438-2.435.625-3.934.625-4.872 0-6.496-2.437-6.496-7.75v-1.312c0-5.188 1.562-7.75 6.184-7.75 1.936 0 3.31.438 4.247 1.375.998.938 1.435 2.188 1.435 4.313v2.75h.063zm-9.744-.625h7.12c.313 0 .438-.063.438-.5v-1.25c0-1.563-.188-2.375-.75-3.063-.562-.688-1.436-1.063-2.748-1.063-2.748 0-3.997 1.25-4.06 5.876zM120.232 140.688c-.375 0-.5-.125-.5-.438v-15.375c0-.25.125-.375.375-.375h.937c.312 0 .375.125.375.375l.124 1.688h.062c.625-1.063 1.81-2.063 3.81-2.063h.874c.313 0 .438.125.438.375V126c0 .25-.125.375-.438.375h-.874c-1.686 0-2.498.5-2.998 1.375-.437.688-.625 1.563-.625 2.625v9.938c0 .25-.187.437-.562.437h-.998v-.063zM139.47 139.5c.124.438.124.563-.563.813-.875.375-2.5.687-3.748.687-2.062 0-3.56-.5-4.56-1.438-1.5-1.375-1.936-3.625-1.936-6.562v-1.063c0-3.062.687-5 1.998-6.25.937-.874 2.5-1.5 4.435-1.5 1.81 0 3.747.688 4.746 1.438.125.125.188.313.063.5l-.562.938c-.125.25-.313.25-.562.062-1.187-.75-2.436-1.125-3.623-1.125-1.25 0-2.25.313-3 1-1.248 1.25-1.31 3.313-1.31 5.125v.563c0 2.562.25 4.125 1.06 5.062.688.875 1.938 1.25 3.312 1.25 1.124 0 2.186-.25 3.185-.625.437-.188.687-.125.812.25l.25.875zM152.21 139.25h-.063c-.75 1.188-1.81 1.75-3.497 1.75h-1.624c-1.437 0-2.748-.438-3.56-1.188-.812-.75-1.187-1.812-1.187-3.125v-1c0-2 .874-3.5 2.56-4.187.75-.313 1.874-.438 3.935-.438h1c.75 0 1.56.063 2.185.125v-1.875c0-2.562-1.374-3.25-3.997-3.25-1.124 0-2.25.188-3.373.5-.5.126-.75.126-.874-.25l-.188-.687c-.125-.375-.062-.625.375-.75 1.062-.313 2.748-.625 4.247-.625 4.247 0 5.996 1.438 5.996 4.875v11.313c0 .25-.062.312-.375.312h-1.06c-.313 0-.438-.125-.438-.313l-.062-1.187zm-.188-6.25c-.5-.063-1.25-.125-1.998-.125h-1.874c-1.436 0-2.31.188-2.935.688-.562.437-.812 1.187-.812 2.187v.688c0 1.062.25 1.687.687 2.125.437.375 1.062.625 1.998.625h1.374c2.186 0 3.498-1.125 3.498-3.438V133h.062zM170.51 135.25c0 1.813-.375 3-1.25 4-.936 1.063-2.623 1.688-4.996 1.688-4.497 0-6.558-1.625-6.558-7.563v-1.563c0-5.25 2-7.687 6.433-7.687 1.935 0 3.372.625 4.184 1.563h.062v-7.126c0-.25.188-.374.375-.374h1.375c.25 0 .375.124.375.374v16.688zm-2.124-4.813c0-2.687-1.31-4.375-3.997-4.375-1.562 0-2.5.313-3.25 1.126-.81.937-1.248 2.437-1.248 4.874v1.125c0 2.688.375 4.063 1.187 4.938.686.75 1.56 1 3.184 1s2.748-.313 3.373-1.25c.5-.688.687-1.438.687-2.938v-4.5h.062zM186.81 133.25c0 2.938-.5 4.938-1.685 6.188C184.063 140.5 182.5 141 180.44 141c-1.998 0-3.56-.5-4.62-1.563-1.25-1.25-1.688-3.25-1.688-6.187v-1.313c0-2.937.5-5 1.687-6.187 1.06-1.063 2.747-1.5 4.62-1.5 1.936 0 3.56.438 4.685 1.5 1.25 1.25 1.686 3.25 1.686 6.188v1.312zm-10.492-.375c0 1.375.125 2.813.312 3.625.563 1.938 1.874 2.625 3.81 2.625 2 0 3.31-.688 3.873-2.625.25-.813.312-2.25.312-3.625v-.625c0-1.375-.125-2.813-.312-3.625-.562-1.938-1.874-2.563-3.873-2.563-1.936 0-3.247.626-3.81 2.563-.25.813-.312 2.25-.312 3.625v.625zM190.12 140.188c-.31-.125-.436-.25-.374-.563l.25-.938c.125-.375.312-.437.625-.312 1.312.5 2.624.813 3.998.813 1.56 0 2.248-.25 2.81-.688.5-.438.812-1.125.812-2.125v-.188c0-1.187-.187-1.812-.874-2.187-.5-.313-1.25-.438-2.31-.688l-.938-.187c-1.06-.188-1.936-.438-2.56-.813-1.25-.687-1.687-1.875-1.687-3.437v-.313c0-2.937 1.813-4.312 5.31-4.312 1.437 0 2.623.188 3.685.438.375.124.562.312.5.624l-.188.876c-.125.374-.312.562-.75.437-.936-.25-2.185-.5-3.247-.5-1.436 0-2.186.25-2.623.688-.375.312-.687.937-.687 1.687v.25c0 .688.125 1.25.5 1.625.437.438 1 .688 2.56 1l.875.188c1.624.312 2.935.75 3.622 1.562.5.688.812 1.625.812 2.938v.312c0 1.188-.313 2.375-.938 3.063-.874 1.125-2.436 1.625-4.684 1.625-1.686-.063-3.435-.438-4.497-.875zM23.174 183.25c-1.186 0-1.624-.438-2.248-2.063-3.186-8-7.62-19.562-11.118-29.625h-.374C8.372 163.938 7.622 176 7.06 189.938c0 .313-.25.5-.624.5H4.5c-.375 0-.5-.125-.5-.687.5-13.125 1.374-26.25 2.56-39.063.126-1.125.563-1.687 1.874-1.687h1.937c1.25 0 1.687.313 2.187 1.688 3.31 9.25 7.807 21.375 11.304 30.25h.25c3.5-8.813 7.996-21 11.306-30.25.5-1.375.874-1.688 2.186-1.688h1.936c1.25 0 1.75.5 1.874 1.688 1.25 12.812 2.06 25.937 2.56 39.062 0 .563-.125.688-.5.688h-1.998c-.375 0-.625-.188-.625-.5-.563-13.875-1.312-26-2.374-38.375H38.1c-3.496 10.062-7.93 21.625-11.116 29.625-.624 1.625-1.062 2.062-2.31 2.062h-1.5zm50.902-7.063c0 5.25-.687 9.75-3.435 12.25-1.747 1.625-4.37 2.625-8.368 2.625-3.997 0-6.62-1-8.37-2.625-2.747-2.5-3.434-7-3.434-12.25v-2.812c0-5.25.624-9.75 3.435-12.25 1.81-1.563 4.372-2.625 8.37-2.625 4.06 0 6.682 1 8.368 2.625 2.75 2.5 3.436 7 3.436 12.25v2.813zm-20.86-.75c0 5.25.437 7.875 1.75 9.813 1.498 2.188 3.87 3.25 7.306 3.25 3.435 0 5.81-1.063 7.308-3.25 1.25-1.938 1.748-4.563 1.748-9.813v-1.312c0-5.25-.437-7.875-1.748-9.813-1.5-2.187-3.81-3.25-7.308-3.25-3.435 0-5.808 1.063-7.307 3.25-1.25 1.938-1.75 4.563-1.75 9.813v1.313zm51.59 14.5c0 .375-.188.5-.5.5h-1.812c-.25 0-.437-.125-.437-.5v-18.75c0-5-.937-7.5-3.185-8.812-1.25-.75-2.873-1.188-5.122-1.25-5.62-.125-9.056 2.375-9.056 9.25V190c0 .375-.187.5-.5.5h-1.81c-.25 0-.438-.125-.438-.5v-30.5c0-.313.125-.438.437-.438h1.437c.312 0 .562.125.562.5l.187 2.938h.062c1.56-2.5 4.62-4.063 9.118-4.063 4.872 0 7.995 1.5 9.68 4.5 1.063 2 1.438 4.438 1.438 7.938v19.063h-.063zm9.742-38.375c0-.375.125-.5.5-.5h1.75c.374 0 .5.125.5.5v7.5h7.806c.374 0 .5.188.5.438v1.688c0 .25-.126.437-.5.437h-7.807v18.625c0 2.938.062 4.75 1.186 6.063.875 1 2.56 1.687 5.434 1.687h1.936c.375 0 .5.188.5.5v1.438c0 .312-.125.5-.5.5h-2.31c-3.748 0-6.184-1.063-7.37-2.563-1.5-1.875-1.687-3.75-1.687-7.313v-18.937h-4.497c-.25 0-.376-.125-.376-.375V160c0-.313.125-.375.375-.438l4.496-.5v-7.5h.062zm38.973 22.375c0 2-.623 2.688-2.622 2.688h-16.676c.188 9.063 2.624 11.875 9.18 11.875 2.187 0 5.498-.563 7.684-1.5.5-.188.687-.125.812.25l.374 1c.188.563.188.75-.5 1.063-2.31 1-5.683 1.687-8.37 1.687-8.867 0-12.053-4.25-12.053-14.813v-2.875c0-10.375 3.247-14.875 11.43-14.875 7.18 0 10.68 3.75 10.68 11.563v3.938h.06zm-3.62 0c.624 0 .873 0 .873-1v-2c0-7.125-2.498-9.875-7.932-9.875-5.932 0-8.43 2.75-8.555 12.875H149.9zM174.443 191c-3.622 0-8.806-.75-11.74-1.813-1.688-.562-2-1.375-1.813-2.562l.813-5.188c.188-1.375.937-1.75 2.25-1.25 3.62 1.25 7.494 2 10.242 2h.312c3.997 0 5.37-1 5.37-3.625v-.625c0-2.687-1.248-3.187-5.058-3.875l-4.373-.812c-7.495-1.375-9.743-5.125-9.743-11.25v-1.875c0-3.625.937-6.313 2.873-8.188 2.436-2.375 6.308-3.437 12.74-3.437h.438c3.81 0 8.307.688 10.868 1.688 1.31.5 1.624 1.187 1.187 2.875l-1.062 4.687c-.25 1.188-.937 1.563-2.374 1.063-2.873-.875-5.558-1.375-8.43-1.375h-.25c-4.31 0-5.56.875-5.56 3.187v.563c0 2.062.875 2.687 4.185 3.312l4.87.938c7.433 1.5 10.118 3.687 10.118 11.5v1.562c0 8.438-4.31 12.5-15.177 12.5h-.686zm37.6-8.25c2.06 0 5.183-.438 6.807-.813.313-.062.75-.187 1.188-.187.562 0 1 .438 1.124 1.063l.5 3.187c.125.625.25 1.25.25 1.75 0 .813-.313 1.25-1.687 1.75-2.56.875-6.558 1.563-9.68 1.563h-1.187c-5.06 0-8.932-1.063-11.118-3.25-2.56-2.563-3.185-5.813-3.185-11v-3.563c0-6.375 1.687-9.875 3.873-11.75 2.123-1.875 5.433-2.875 10.055-2.875h.874c4.622 0 7.932 1.25 9.68 3.188 2.25 2.5 3.062 5.937 3.062 11.437v3.313c0 1.375-.563 1.812-1.875 1.812H205.36v.5c0 3 1.5 4 5.934 4h.75v-.125zm.374-11.125c.562 0 .75-.25.75-.813v-1c0-1.25-.188-2.25-.625-2.937-.562-.813-1.56-1.125-2.935-1.125h-.562c-1.125 0-2.124.25-2.686.875-.625.688-.937 1.813-.937 3.438v1.625h6.995v-.063zm23.86-9.063c1.56-2.5 3.62-3.437 7.18-3.437h2.562c1.31 0 1.874.313 1.874 1.813v4.687c0 1.438-.438 1.813-1.75 1.813h-1.935c-2.437 0-4 .437-4.873 1.375-.812.812-1.062 2.312-1.062 4.437v15.5c0 1.25-.437 1.875-2.186 1.875h-5.872c-1.748 0-2.186-.625-2.186-1.875v-27.688c0-1.25.5-1.812 2.186-1.812h3.06c1.5 0 2 .313 2.312 1.5l.5 2h.187v-.188zm23.607 0c1.562-2.5 3.623-3.437 7.183-3.437h2.56c1.312 0 1.874.313 1.874 1.813v4.687c0 1.438-.437 1.813-1.75 1.813h-1.935c-2.436 0-3.934.437-4.87 1.375-.813.812-1.063 2.312-1.063 4.437v15.5c0 1.25-.437 1.875-2.186 1.875h-5.87c-1.75 0-2.187-.625-2.187-1.875v-27.688c0-1.25.5-1.812 2.187-1.812h3.06c1.5 0 2 .313 2.31 1.5l.5 2h.188v-.188zm32.665 25.25c-1.25 1.938-4.372 3.188-8.37 3.188h-.936c-6.37 0-10.368-3.375-10.368-9.875v-.688c0-7.187 3.998-9.5 12.617-9.5h.437c1.686 0 3.497.125 4.497.25v-1.375c0-1.25-.188-2.187-1.062-2.812-.75-.5-1.75-.688-3.872-.688-2.25 0-4.935.438-7.433 1.063-1.624.375-1.998-.125-2.186-1.25l-.5-3.375c-.062-.438-.124-1-.124-1.25 0-.813.25-1.25 1.56-1.688 2.687-.75 6.62-1.437 10.93-1.437 5.122 0 8.433 1 10.494 3.125 1.686 1.75 2.436 4.25 2.436 8v19c0 1.25-.5 1.813-2.186 1.813h-2.998c-1.5 0-2-.313-2.374-1.5l-.374-1.125h-.188v.125zm-2.186-10c-.687-.125-2.186-.187-3.06-.187h-.687c-2.936 0-4.185.5-4.185 2.875v.25c0 2.375 1.374 2.938 3.56 2.938h.437c1.498 0 2.435-.438 2.997-.938.687-.625.875-1.438.875-3.125v-1.813h.062zm36.35 10.25c0 1.875-.375 2.375-2.06 2.375h-5.123c-5.12 0-7.493-.625-9.055-2.375-1.31-1.5-1.873-3.625-1.873-7.75v-13.25h-3.436c-1.186 0-1.623-.375-1.623-1.625v-3.25c0-1.625.312-1.875 1.686-2.187l3.372-.813v-6.25c0-1.187.437-1.875 2.186-1.875h5.87c1.75 0 2.186.625 2.186 1.875v6.125h5.31c1.186 0 1.686.25 1.686 1.875v4.313c0 1.625-.438 1.875-1.687 1.875h-5.31v12.125c0 1.063.064 1.75.5 2.25.376.438 1.063.625 2.5.625h2.81c1.686 0 2.06.5 2.06 2.375v3.563zM11.058 234.688c-3.685 5.125-7.745 12.25-.687 12.187 11.493-.063 17.8-21.375 8.87-20.813-7.433.438-10.243 4-10.618 4.75-.312.75-.937-.437.687-1.937 2.372-2.25 9.68-4.938 12.927-4 5.31 1.563 2 22.25-11.68 23.25-13.74 1-1.935-17.25 4.31-18.438.75-.25-1.748 2.188-3.81 5M71.578 243.563c-.187.125-3.435 1.875-5.87 2.75-2.437.812-4.81 1.812-5.31-.063-.124-.5 0-2.688.125-4.438.063-1.062-1.186-2.875-3.81-.75-1.56 1.375-3.81 4-4.247 4.563-1.374 1.75-1.686 2.375-2.31 1.5-.438-.563 1.873-4.563 1.06-6.625-.373-.438-1.56-.625-3.06.5-2.497 1.875-4.746 4.563-5.87 5.625-1.187.938-1.75 1.563-2.373 1.5-.687-.063-1.437-.813-.25-2.438 1.186-1.562 3.435-6.25 3.747-6.75.125-.312 2.498-1.125 2.06 0-.373 1.125-2.185 4.75-1.935 4.75s7.12-6.437 8.307-6.437c1.436 0 1.874 1.813 1.75 3-.064.75-.25 1.688-.314 2.75 2.436-2.75 5.372-4.875 6.62-5.563 1.25-.687 2.874.938 2.686 3.063-.124 1.75-.812 5.125 0 5.5.563.25 3.748-.438 5.684-1.5 1.874-1 2.935-1.75 3.248-1.688.25.125.25.625.062.75"/><path d="M85.693 244.188c-2.56 2-4.746 3.625-10.555 3.812-5.12.188-7.432-4.563-3.747-8 3.623-3.438 6.56-3.125 7.183-2.125.625 1 .25 1.938-.812 3.25-1.06 1.25-5.745 3.313-5.745 3.313.438.875.937 2.062 3.498 2.375 5.434.687 9.493-3.125 10.056-3.313.748-.063.123.688.123.688m-9.68-3c1.31-1.188 1.56-2.188.812-2.438-.75-.25-4.56 2.125-4.935 4.188-.124.187 2.81-.5 4.123-1.75"/><path d="M101.745 244.25c-.375.25-7.058 4.875-13.18 3.563-6.057-1.25-3.31-7.688-1.747-10.313 3.622-6.063 7.682-9.125 9.368-10.25s3.997-1.313 4.31.5c.312 1.813-3.06 5.938-5.247 8.25-2.25 2.313-7.995 6.438-8.12 6.75-.562 1.938 1.75 3.563 3.685 3.875 1.874.313 5.683-.625 8.68-2.125 3.062-1.375 2.562-.5 2.25-.25m-14.553-3.375c.25.188 4.06-1.813 7.87-5.875 3.747-4.063 4.06-6.25 3.123-6.813-.875-.5-4.31 2.313-8.182 7.375-2.936 3.75-2.81 5.313-2.81 5.313"/><path d="M124.354 244.375c-4.06 2.188-4.372 2.875-7.245 2.125-2.874-.813-3.686-4-4.997-4.25-1.312-.25-3.123 1.188-4.56 2.313-1.436 1.062-4.372 3.5-5.246 3.5-.5 0-1.936-1.313-1.75-1.938.064-.25.19-1.375 1.375-3.25 7.433-11.688 9.993-14.375 13.428-16.5 3.436-2.125 6.62-2.313 6.62.438.063 2.687-4.933 6.687-7.37 8.5-2.372 1.812-8.368 4.937-8.743 5.062 0 0-.437 1-1.25 2.125-.81 1.188-1.56 2.688-.998 2.938.56.25 1.56-.625 2.434-1.375.812-.688 5.684-4.063 7.245-3.875 1.56.187 1.998 1.812 3.497 3.625 1.5 1.75 3.123 1.25 4.622.812 1.31-.563 7.056-2.5 2.934-.25m-16.488-7c.25-.063 5.995-2.375 9.68-6.438 3.748-4 2.5-4.187 2.25-4.375-.19-.25-2.312-.25-6.434 3.688-4.122 4-5.496 7.125-5.496 7.125"/><path d="M143.966 244.313c-.687.25-2.873.812-4.81.812-1.936 0-4.81-1.688-4.81-1.688s-.748 4.625-6.807 4.625c-3.998-.062-4.373-5.062-1.75-7.5 2.624-2.5 4.935-2.187 4.935-2.187.187-.688 1.374-1.375 2.748 0s1.374 4 1.374 4-.187.5 2 1.25c2.184.813 3.996.813 6.68-.063 2.687-.875 1.188.5.44.75m-10.307-1.5c-1.31-1-2.56-3.437-2.56-3.437s-1.125.313-2.31 1c-1.75.938-4.623 5.375-.44 6.313 3.25.687 5.435-3.813 5.31-3.875"/><path d="M144.028 243.625c3.498-2.25 4.06-5.75 4.06-6.313 0-.562.812.438 1.374 1.063.624.688 2.748 2.813 2.748 3.25 0 .438 0 4.188 2.436 4.75 3.185.813 6.495-1.375 7.62-2.188 1.06-.812 1.31.125.624.563-.625.5-1.624 1.188-3.06 1.875-1.374.688-3.56 1.75-5.622 1.375-2.06-.438-3.435-2.125-3.435-5.688 0-.75-2.123-1.562-2.623-1.375-.437.188-2.56 2.688-4.372 3.563 0 0-.25.125-.437 0-.186-.125-.31-.25.313-.688l.375-.187zM194.493 246.688c-5.87 2.5-10.243.812-10.93-.25-.75-1.188.063-1.625 1-.5 1 1.187 2.498 1.187 4.684.875 2.123-.375 5.87-1.25 6.245-5.375.25-2.5-7.744.437-11.367 1.625-1 1.312-1.998 2.75-3.06 4.062-.375.438-5.87 7.75-9.556 12.188-3.623 4.375-7.184 2.312-7.62 1.187-.375-1.188-.75-2.75 1.935-6.125 2.873-3.75 7.495-7 8.932-7.875 1.436-.813 7.62-4.563 7.62-4.563.562-.562 3.31-5.375 3.872-5.312.998.063 1.56.625 1.623 1 0 0-1 1.5-2.374 3.5 0 0 4.808-2.625 9.43-2.563 4.06 0 4.247 6.188-.437 8.125zM180.69 244.5s-12.366 6.688-14.365 11.125c-2 4.438.063 5 1.75 4.188 1.685-.938 11.24-13 11.49-13.938l1.125-1.375zM221.85 244.313c-.688.25-2.874.812-4.81.812-1.936 0-4.81-1.688-4.81-1.688s-.75 4.625-6.807 4.625c-3.997-.062-4.372-5.062-1.75-7.5 2.624-2.5 4.935-2.187 4.935-2.187.188-.688 1.374-1.375 2.748 0s1.374 4 1.374 4-.187.5 2 1.25c2.185.813 3.996.813 6.682-.063 2.686-.875 1.124.5.437.75m-10.37-1.5c-1.31-1-2.56-3.437-2.56-3.437s-1.124.313-2.31 1c-1.75.938-4.622 5.375-.438 6.313 3.248.687 5.497-3.813 5.31-3.875"/><path d="M221.912 243.625c3.497-2.25 4.06-5.75 4.06-6.313 0-.562.81.438 1.373 1.063.625.688 2.748 2.813 2.748 3.25 0 .438 0 4.188 2.436 4.75 3.185.813 6.495-1.375 7.62-2.188 1.06-.812 1.31.125.624.563-.625.5-1.624 1.188-3.06 1.875-1.375.688-3.56 1.75-5.622 1.375-2.06-.438-3.435-2.125-3.435-5.688 0-.75-2.124-1.562-2.623-1.375-.437.188-2.56 2.688-4.372 3.563 0 0-.25.125-.5 0-.187-.125-.312-.25.312-.688l.438-.187zM261.884 238.563c0 .375-2.498 6.5-1.936 6.812.5.313 1.75.188 3.622-1 1.874-1.125 4.56-3.563 5.122-5.313.562-1.687 1.56-2.312 2.123-2 .5.313-.375 2.313-.375 2.313s1.312 3.063 3.998 3.438c2.748.437 4.247-.063 5.31-.625.998-.563 1.56 1-1.563 1.562-3.185.5-5.434-.375-6.995-1.25-1.374-.813-1.936-1.938-2.124-1.813-.124.063-3.185 3.25-4.996 4.375-1.81 1.188-4.31 3.313-5.496 2.875-1.187-.437-.687-2.312 0-4.187 1-2.813.5-6 1.748-5.688.75.125 1.562.125 1.562.5"/><path d="M299.483 244.313c-.687.25-2.873.812-4.81.812-1.935 0-4.808-1.688-4.808-1.688s-.75 4.625-6.808 4.625c-3.997-.062-4.372-5.062-1.75-7.5 2.624-2.5 4.935-2.187 4.935-2.187.187-.688 1.374-1.375 2.748 0s1.374 4 1.374 4-.187.5 2 1.25c2.185.813 3.996.813 6.682-.063 2.685-.875 1.124.5.437.75m-10.368-1.5c-1.312-1-2.56-3.437-2.56-3.437s-1.125.313-2.312 1c-1.748.938-4.62 5.375-.437 6.313 3.248.687 5.434-3.813 5.31-3.875"/><path d="M306.166 239.313c-1 .312-4.31 2.062-5.06 3.437-.81 1.375-.936 4 1.937 3.813 2.873-.25 7.62-1.5 9.743-2.5 2.06-.938 4.247-1.563 2.936-.813-1.312.75-3.935 2.313-5.81 2.938-1.873.625-7.556 2.125-9.242 1.75-1.75-.438-3.436-3 .25-6.438 3.684-3.5 7.307-4.563 8.18-4 .876.625.938 1.75.563 1.75-.437.063-2.498-.25-3.497.063"/><path d="M329.337 244.188c-2.56 2-4.747 3.625-10.555 3.812-5.12.188-7.432-4.563-3.747-8 3.622-3.438 6.558-3.125 7.182-2.125.625 1 .312 1.938-.812 3.25-1.062 1.25-5.746 3.313-5.746 3.313.5.875.936 2.062 3.497 2.375 5.433.687 9.493-3.125 10.055-3.313.812-.063.125.688.125.688m-9.68-3c1.31-1.188 1.56-2.188.81-2.438-.748-.25-4.558 2.125-4.933 4.188-.125.187 2.81-.5 4.122-1.75M318.22 234.125c2.123-.25 3.622-1.563 5.434-2.625h-1.5c.375 1.313.75 2.688 2.374 2.688.625 0 2-1 .75-.938-.812 0-1.062-1.625-1.25-2.25-.125-.5-1.25-.125-1.5 0-1.248.75-2.497 1.938-3.996 2.125-.874.125-1.624 1.125-.312 1"/></g></svg>