<?xml version="1.0" encoding="UTF-8" standalone="no"?>
<svg width="368px" height="268px" viewBox="0 0 368 268" version="1.1" xmlns="http://www.w3.org/2000/svg" xmlns:xlink="http://www.w3.org/1999/xlink" xmlns:sketch="http://www.bohemiancoding.com/sketch/ns">
    <!-- Generator: Sketch 3.3.3 (12081) - http://www.bohemiancoding.com/sketch -->
    <title>LOGO MONTESERRAT - WHITE</title>
    <desc>Created with Sketch.</desc>
    <defs></defs>
    <g id="MORE-v3" stroke="none" stroke-width="1" fill="none" fill-rule="evenodd" sketch:type="MSPage">
        <g id="Mais-SEM-LOGIN" sketch:type="MSArtboardGroup" transform="translate(-136.000000, -101.000000)" fill="#FFFFFF">
            <g id="LOGO-MONTESERRAT---WHITE" sketch:type="MSLayerGroup" transform="translate(140.000000, 103.000000)">
                <path d="M210.729066,10 C196.364014,16.0625 183.435467,24.5625 172.193253,34.5625 C166.884429,39.3125 161.887889,44.375 157.391003,49.75 C157.45346,49.375 157.515917,49.0625 157.578374,48.6875 C158.202941,44.5625 158.515225,40.25 158.327855,35.8125 C158.140484,31.375 157.515917,26.75 155.892042,21.9375 C154.205709,17.1875 151.395156,12 146.585986,8 C144.21263,6 141.464533,4.4375 138.653979,3.3125 C135.780969,2.25 132.907958,1.625 130.159862,1.375 C124.601211,0.875 119.729585,1.6875 115.107785,2.75 C110.860727,3.8125 106.863495,5.1875 102.866263,6.75 C86.8773356,13.125 72.949481,23.625 62.1444637,36.125 C56.7107266,42.375 51.9640138,49.125 48.0292388,56.25 C44.0944637,63.375 40.7842561,70.8125 38.7231834,78.75 C38.3484429,80.25 38.9105536,81.9375 40.2846021,82.875 C42.033391,84.125 44.4692042,83.6875 45.7183391,81.9375 L45.7807958,81.875 C54.399827,69.625 64.3929066,58.4375 75.1979239,49.0625 C86.0653979,39.6875 98.0570934,32.125 110.860727,27.3125 C114.046021,26.125 117.356228,25.0625 120.603979,24.25 C123.47699,23.4375 126.287543,23.125 128.473529,23.1875 C130.721972,23.3125 132.096021,23.75 133.407612,24.5 C134.656747,25.3125 136.155709,26.8125 137.342388,29.25 C139.840657,34 141.214706,41 142.026644,48.0625 C142.776125,55.1875 143.025952,62.8125 143.150865,70.3125 L143.150865,70.3125 C142.588754,71.5625 142.713668,73.0625 143.650519,74.1875 C144.899654,75.6875 147.148097,75.875 148.709516,74.625 L149.958651,73.5625 C171.193945,55.625 194.552768,40.4375 219.223183,32.3125 C231.464706,28.25 244.268339,26.0625 256.572318,26.0625 C262.69308,26.0625 268.001903,26.875 272.061592,28.8125 C276.058824,30.6875 278.80692,33.3125 280.867993,37.5 C282.866609,41.625 284.053287,47.25 284.303114,53.25 C284.552941,59.25 284.115744,65.75 283.178893,72.25 C282.242042,78.75 280.93045,85.375 279.244118,92.0625 L276.620934,102.1875 L275.93391,104.875 C275.684083,105.8125 275.434256,106.8125 275.121972,108.375 C274.684775,110.9375 274.497405,114.1875 275.184429,117.5 C275.871453,120.875 277.682699,124.5 280.368339,127.125 C283.053979,129.75 286.239273,131.3125 289.049827,132.0625 C294.795848,133.5625 299.542561,133 303.852076,132.1875 C312.408651,130.375 319.403806,126.8125 325.961765,122.8125 C332.457266,118.8125 338.453114,114.3125 343.949308,109.4375 C349.507958,104.5625 354.691869,99.375 359.501038,93.9375 C360.687716,92.625 360.81263,90.625 359.750865,89.125 C358.50173,87.375 356.065917,87 354.379585,88.25 L354.379585,88.25 C348.633564,92.375 342.887543,96.3125 336.954152,99.9375 C331.020761,103.5 325.024913,106.8125 318.966609,109.5 C312.908304,112.125 306.600173,114.125 301.103979,114.625 C298.418339,114.875 295.857612,114.5625 294.733391,114 C294.17128,113.75 294.17128,113.5 294.358651,113.5625 C294.546021,113.625 294.795848,113.9375 294.858304,113.8125 C294.920761,113.625 294.920761,113.25 295.233045,112.3125 L296.66955,108.25 C297.856228,104.9375 299.105363,101.4375 300.229585,97.9375 C302.478028,90.875 304.601557,83.625 306.100519,76.125 C307.599481,68.625 308.661246,60.8125 308.661246,52.5625 C308.598789,44.375 307.599481,35.5625 303.602249,26.75 C301.603633,22.375 298.855536,18.0625 295.233045,14.375 C291.67301,10.6875 287.425952,7.6875 282.991522,5.625 C274.122664,1.375 264.941522,0.3125 256.884602,0.25 C240.708304,0.625 225.094118,4 210.729066,10" id="SVGID_1_" sketch:type="MSShapeGroup"></path>
                <g id="Group" transform="translate(0.000000, 116.000000)" sketch:type="MSShapeGroup">
                    <path d="M0.624567474,22 C0.312283737,21.875 0.24982699,21.75 0.312283737,21.4375 L0.562110727,20.375 C0.624567474,20.0625 0.874394464,19.9375 1.24913495,20.125 C2.43581315,20.625 4.24705882,21.125 6.0583045,21.125 C9.18114187,21.125 10.7425606,19.625 10.7425606,17.125 L10.7425606,16.75 C10.7425606,14.375 9.99307958,13.5 7.2449827,12.875 L5.05899654,12.375 C1.87370242,11.625 0.374740484,10.0625 0.374740484,7 L0.374740484,6.5 C0.374740484,2.9375 2.87301038,1.0625 6.68287197,1.0625 C8.55657439,1.0625 10.1179931,1.3125 11.4295848,1.6875 C11.866782,1.8125 11.9292388,2 11.866782,2.4375 L11.616955,3.25 C11.4920415,3.625 11.2422145,3.6875 10.8050173,3.5625 C9.36851211,3.125 8.3067474,2.9375 6.74532872,2.9375 C4.05968858,2.9375 2.62318339,4.1875 2.62318339,6.5625 L2.62318339,6.875 C2.62318339,9.25 3.87231834,9.9375 6.0583045,10.4375 L8.11937716,10.9375 C11.7418685,11.8125 12.9910035,13.1875 12.9910035,16.4375 L12.9910035,16.9375 C12.9910035,21 10.4927336,23 6.12076125,23 C3.87231834,23 2.12352941,22.625 0.624567474,22 L0.624567474,22 Z" id="Shape"></path>
                    <path d="M27.9181661,6.5 C28.1679931,6.5 28.2929066,6.6875 28.2929066,6.9375 L28.2929066,18.0625 C28.2929066,19.6875 27.7932526,21 26.8564014,21.8125 C25.9195502,22.625 24.6704152,23 22.3595156,23 C20.1735294,23 18.799481,22.625 17.8626298,21.8125 C16.8633218,20.9375 16.3636678,19.6875 16.3636678,18.0625 L16.3636678,7.0625 C16.3636678,6.75 16.5510381,6.5625 16.8008651,6.5625 L18.05,6.5625 C18.3622837,6.5625 18.4871972,6.8125 18.4871972,7 L18.4871972,17.75 C18.4871972,19.0625 18.7370242,19.75 19.3615917,20.3125 C20.0486159,20.9375 20.9230104,21.125 22.3595156,21.125 C23.8584775,21.125 24.732872,20.875 25.4198962,20.1875 C25.9820069,19.6875 26.1693772,19.0625 26.1693772,17.75 L26.1693772,6.9375 C26.1693772,6.6875 26.3567474,6.5 26.5441176,6.5 L27.9181661,6.5 L27.9181661,6.5 Z" id="Shape"></path>
                    <path d="M34.7884083,21.25 L34.7259516,21.25 L34.7259516,28.1875 C34.7259516,28.4375 34.6010381,28.5625 34.4136678,28.5625 L32.9147059,28.5625 C32.6648789,28.5625 32.6024221,28.4375 32.6024221,28.1875 L32.6024221,6.875 C32.6024221,6.625 32.7273356,6.5 32.9147059,6.5 L33.9140138,6.5 C34.1638408,6.5 34.2887543,6.625 34.2887543,6.875 L34.4761246,8.1875 L34.5385813,8.1875 C35.4129758,7 36.9743945,6.1875 39.3477509,6.1875 C43.7197232,6.1875 45.4060554,8.5 45.4060554,13.5625 L45.4060554,15.25 C45.4060554,20 44.0320069,22.9375 39.3477509,22.9375 C36.7870242,23 35.600346,22.25 34.7884083,21.25 L34.7884083,21.25 Z M34.7259516,12.1875 L34.7259516,16.875 C34.7259516,19.6875 36.349827,21.125 39.0979239,21.125 C40.6593426,21.125 41.5961938,20.8125 42.283218,19.875 C43.032699,18.9375 43.1576125,17.625 43.1576125,15.125 L43.1576125,13.875 C43.1576125,11.625 42.9702422,10.125 42.1583045,9.125 C41.533737,8.375 40.5344291,8 39.0354671,8 C35.9750865,8.0625 34.7259516,9.5625 34.7259516,12.1875 L34.7259516,12.1875 Z" id="Shape"></path>
                    <path d="M60.2707612,14.5625 C60.2707612,15.5 59.9584775,15.8125 59.0216263,15.8125 L50.5275087,15.8125 C50.6524221,19.75 51.7766436,21.125 54.8370242,21.125 C56.0861592,21.125 57.3977509,20.875 58.4595156,20.4375 C58.8967128,20.25 59.1465398,20.3125 59.2714533,20.6875 L59.5212803,21.4375 C59.6461938,21.75 59.6461938,22 58.7717993,22.3125 C57.5851211,22.75 56.3359862,22.9375 54.8370242,22.9375 C49.9653979,22.9375 48.3415225,20.5 48.3415225,15.1875 L48.3415225,13.875 C48.3415225,8.6875 49.9029412,6.125 54.5247405,6.125 C56.4608997,6.125 57.8349481,6.5625 58.7717993,7.5 C59.7711073,8.4375 60.2083045,9.6875 60.2083045,11.8125 L60.2083045,14.5625 L60.2707612,14.5625 Z M50.5275087,13.9375 L57.6475779,13.9375 C57.9598616,13.9375 58.0847751,13.875 58.0847751,13.4375 L58.0847751,12.1875 C58.0847751,10.625 57.8974048,9.8125 57.3352941,9.125 C56.7731834,8.4375 55.8987889,8.0625 54.5871972,8.0625 C51.7766436,8.0625 50.5899654,9.3125 50.5275087,13.9375 L50.5275087,13.9375 Z" id="Shape"></path>
                    <path d="M64.7051903,22.6875 C64.3304498,22.6875 64.2055363,22.5625 64.2055363,22.25 L64.2055363,6.875 C64.2055363,6.625 64.3304498,6.5 64.5802768,6.5 L65.517128,6.5 C65.8294118,6.5 65.8918685,6.625 65.8918685,6.875 L66.016782,8.5625 L66.0792388,8.5625 C66.7038062,7.5 67.8904844,6.5 69.8891003,6.5 L70.7634948,6.5 C71.0757785,6.5 71.200692,6.625 71.200692,6.875 L71.200692,8 C71.200692,8.25 71.0757785,8.375 70.7634948,8.375 L69.8891003,8.375 C68.2027682,8.375 67.3908304,8.875 66.8911765,9.75 C66.4539792,10.4375 66.266609,11.3125 66.266609,12.375 L66.266609,22.3125 C66.266609,22.5625 66.0792388,22.75 65.7044983,22.75 L64.7051903,22.75 L64.7051903,22.6875 Z" id="Shape"></path>
                    <path d="M74.1361592,6.875 C74.1361592,6.625 74.2610727,6.5 74.5108997,6.5 L75.4477509,6.5 C75.6975779,6.5 75.8224913,6.625 75.8224913,6.875 L76.0098616,8.1875 L76.0723183,8.1875 C76.3846021,7.6875 76.8842561,7.25 77.4463668,6.9375 C78.3207612,6.4375 79.382526,6.1875 80.5067474,6.1875 C83.067474,6.1875 84.4415225,6.9375 85.4408304,8.4375 L85.5032872,8.4375 C86.5650519,7 88.3138408,6.1875 90.6247405,6.1875 C92.6858131,6.1875 94.0598616,6.6875 94.9967128,7.75 C95.933564,8.8125 96.3083045,10.5 96.3083045,12.6875 L96.3083045,22.1875 C96.3083045,22.5625 96.1209343,22.6875 95.8086505,22.6875 L94.6844291,22.6875 C94.3721453,22.6875 94.1847751,22.5625 94.1847751,22.1875 L94.1847751,12.5625 C94.1847751,10.9375 93.9349481,10 93.3728374,9.25 C92.7482699,8.5 91.7489619,8.0625 90.3124567,8.0625 C88.5636678,8.0625 87.1896194,8.6875 86.1278547,10.0625 C86.2527682,10.9375 86.3152249,11.6875 86.3152249,12.6875 L86.3152249,22.1875 C86.3152249,22.5625 86.1903114,22.6875 85.8155709,22.6875 L84.6913495,22.6875 C84.316609,22.6875 84.1916955,22.5625 84.1916955,22.1875 L84.1916955,12.5625 C84.1916955,10.8125 83.8794118,9.8125 83.1923875,9.125 C82.5053633,8.4375 81.5060554,8.125 80.0695502,8.125 C78.5705882,8.125 77.5088235,8.5625 76.8842561,9.5 C76.5095156,10.125 76.2596886,10.75 76.2596886,12.0625 L76.2596886,22.25 C76.2596886,22.5625 76.1347751,22.75 75.7600346,22.75 L74.5733564,22.75 C74.1986159,22.75 74.0737024,22.625 74.0737024,22.25 L74.0737024,6.875 L74.1361592,6.875 Z" id="Shape"></path>
                    <path d="M111.797578,14.5625 C111.797578,15.5 111.485294,15.8125 110.548443,15.8125 L102.054325,15.8125 C102.179239,19.75 103.30346,21.125 106.363841,21.125 C107.612976,21.125 108.924567,20.875 109.986332,20.4375 C110.423529,20.25 110.673356,20.3125 110.79827,20.6875 L111.048097,21.4375 C111.17301,21.75 111.17301,22 110.298616,22.3125 C109.111938,22.75 107.862803,22.9375 106.363841,22.9375 C101.492215,22.9375 99.8683391,20.5 99.8683391,15.1875 L99.8683391,13.875 C99.8683391,8.6875 101.429758,6.125 106.051557,6.125 C107.987716,6.125 109.361765,6.5625 110.298616,7.5 C111.297924,8.4375 111.735121,9.6875 111.735121,11.8125 L111.735121,14.5625 L111.797578,14.5625 Z M102.054325,13.9375 L109.174394,13.9375 C109.486678,13.9375 109.611592,13.875 109.611592,13.4375 L109.611592,12.1875 C109.611592,10.625 109.424221,9.8125 108.862111,9.125 C108.3,8.4375 107.425606,8.0625 106.114014,8.0625 C103.365917,8.0625 102.116782,9.3125 102.054325,13.9375 L102.054325,13.9375 Z" id="Shape"></path>
                    <path d="M116.232007,22.6875 C115.857266,22.6875 115.732353,22.5625 115.732353,22.25 L115.732353,6.875 C115.732353,6.625 115.857266,6.5 116.107093,6.5 L117.043945,6.5 C117.356228,6.5 117.418685,6.625 117.418685,6.875 L117.543599,8.5625 L117.606055,8.5625 C118.230623,7.5 119.417301,6.5 121.415917,6.5 L122.290311,6.5 C122.602595,6.5 122.727509,6.625 122.727509,6.875 L122.727509,8 C122.727509,8.25 122.602595,8.375 122.290311,8.375 L121.415917,8.375 C119.729585,8.375 118.917647,8.875 118.417993,9.75 C117.980796,10.4375 117.793426,11.3125 117.793426,12.375 L117.793426,22.3125 C117.793426,22.5625 117.606055,22.75 117.231315,22.75 L116.232007,22.75 L116.232007,22.6875 Z" id="Shape"></path>
                    <path d="M135.468685,21.5 C135.593599,21.9375 135.593599,22.0625 134.906574,22.3125 C134.03218,22.6875 132.408304,23 131.15917,23 C129.098097,23 127.599135,22.5 126.599827,21.5625 C125.100865,20.1875 124.663668,17.9375 124.663668,15 L124.663668,13.9375 C124.663668,10.875 125.350692,8.9375 126.662284,7.6875 C127.599135,6.8125 129.160554,6.1875 131.096713,6.1875 C132.907958,6.1875 134.844118,6.875 135.843426,7.625 C135.968339,7.75 136.030796,7.9375 135.905882,8.125 L135.343772,9.0625 C135.218858,9.3125 135.031488,9.3125 134.781661,9.125 C133.594983,8.375 132.345848,8 131.15917,8 C129.910035,8 128.910727,8.3125 128.161246,9 C126.912111,10.25 126.849654,12.3125 126.849654,14.125 L126.849654,14.6875 C126.849654,17.25 127.099481,18.8125 127.911419,19.75 C128.598443,20.625 129.847578,21 131.221626,21 C132.345848,21 133.407612,20.75 134.40692,20.375 C134.844118,20.1875 135.093945,20.25 135.218858,20.625 L135.468685,21.5 L135.468685,21.5 Z" id="Shape"></path>
                    <path d="M148.209862,21.25 L148.147405,21.25 C147.397924,22.4375 146.336159,23 144.649827,23 L143.025952,23 C141.589446,23 140.277855,22.5625 139.465917,21.8125 C138.653979,21.0625 138.279239,20 138.279239,18.6875 L138.279239,17.6875 C138.279239,15.6875 139.153633,14.1875 140.839965,13.5 C141.589446,13.1875 142.713668,13.0625 144.77474,13.0625 L145.774048,13.0625 C146.523529,13.0625 147.335467,13.125 147.960035,13.1875 L147.960035,11.3125 C147.960035,8.75 146.585986,8.0625 143.962803,8.0625 C142.838581,8.0625 141.71436,8.25 140.590138,8.5625 C140.090484,8.6875 139.840657,8.6875 139.715744,8.3125 L139.528374,7.625 C139.40346,7.25 139.465917,7 139.903114,6.875 C140.964879,6.5625 142.651211,6.25 144.150173,6.25 C148.397232,6.25 150.146021,7.6875 150.146021,11.125 L150.146021,22.4375 C150.146021,22.6875 150.083564,22.75 149.77128,22.75 L148.709516,22.75 C148.397232,22.75 148.272318,22.625 148.272318,22.4375 L148.209862,21.25 L148.209862,21.25 Z M148.022491,15 C147.522837,14.9375 146.773356,14.875 146.023875,14.875 L144.150173,14.875 C142.713668,14.875 141.839273,15.0625 141.214706,15.5625 C140.652595,16 140.402768,16.75 140.402768,17.75 L140.402768,18.4375 C140.402768,19.5 140.652595,20.125 141.089792,20.5625 C141.52699,20.9375 142.151557,21.1875 143.088408,21.1875 L144.462457,21.1875 C146.648443,21.1875 147.960035,20.0625 147.960035,17.75 L147.960035,15 L148.022491,15 Z" id="Shape"></path>
                    <path d="M166.509689,17.25 C166.509689,19.0625 166.134948,20.25 165.260554,21.25 C164.323702,22.3125 162.63737,22.9375 160.264014,22.9375 C155.767128,22.9375 153.706055,21.3125 153.706055,15.375 L153.706055,13.8125 C153.706055,8.5625 155.704671,6.125 160.1391,6.125 C162.07526,6.125 163.511765,6.75 164.323702,7.6875 L164.386159,7.6875 L164.386159,0.5625 C164.386159,0.3125 164.573529,0.1875 164.7609,0.1875 L166.134948,0.1875 C166.384775,0.1875 166.509689,0.3125 166.509689,0.5625 L166.509689,17.25 L166.509689,17.25 Z M164.386159,12.4375 C164.386159,9.75 163.074567,8.0625 160.388927,8.0625 C158.827509,8.0625 157.890657,8.375 157.141176,9.1875 C156.329239,10.125 155.892042,11.625 155.892042,14.0625 L155.892042,15.1875 C155.892042,17.875 156.266782,19.25 157.07872,20.125 C157.765744,20.875 158.640138,21.125 160.264014,21.125 C161.887889,21.125 163.012111,20.8125 163.636678,19.875 C164.136332,19.1875 164.323702,18.4375 164.323702,16.9375 L164.323702,12.4375 L164.386159,12.4375 Z" id="Shape"></path>
                    <path d="M182.8109,15.25 C182.8109,18.1875 182.311246,20.1875 181.124567,21.4375 C180.062803,22.5 178.501384,23 176.440311,23 C174.441696,23 172.880277,22.5 171.818512,21.4375 C170.569377,20.1875 170.13218,18.1875 170.13218,15.25 L170.13218,13.9375 C170.13218,11 170.631834,8.9375 171.818512,7.75 C172.880277,6.6875 174.566609,6.25 176.440311,6.25 C178.376471,6.25 180.000346,6.6875 181.124567,7.75 C182.373702,9 182.8109,11 182.8109,13.9375 L182.8109,15.25 L182.8109,15.25 Z M172.318166,14.875 C172.318166,16.25 172.44308,17.6875 172.63045,18.5 C173.192561,20.4375 174.504152,21.125 176.440311,21.125 C178.438927,21.125 179.750519,20.4375 180.31263,18.5 C180.562457,17.6875 180.624913,16.25 180.624913,14.875 L180.624913,14.25 C180.624913,12.875 180.5,11.4375 180.31263,10.625 C179.750519,8.6875 178.438927,8.0625 176.440311,8.0625 C174.504152,8.0625 173.192561,8.6875 172.63045,10.625 C172.380623,11.4375 172.318166,12.875 172.318166,14.25 L172.318166,14.875 L172.318166,14.875 Z" id="Shape"></path>
                    <path d="M186.121107,22.1875 C185.808824,22.0625 185.68391,21.9375 185.746367,21.625 L185.996194,20.6875 C186.121107,20.3125 186.308478,20.25 186.620761,20.375 C187.932353,20.875 189.243945,21.1875 190.617993,21.1875 C192.179412,21.1875 192.866436,20.9375 193.428547,20.5 C193.928201,20.0625 194.240484,19.375 194.240484,18.375 L194.240484,18.1875 C194.240484,17 194.053114,16.375 193.36609,16 C192.866436,15.6875 192.116955,15.5625 191.05519,15.3125 L190.118339,15.125 C189.056574,14.9375 188.18218,14.6875 187.557612,14.3125 C186.308478,13.625 185.87128,12.4375 185.87128,10.875 L185.87128,10.5625 C185.87128,7.625 187.682526,6.25 191.180104,6.25 C192.616609,6.25 193.803287,6.4375 194.865052,6.6875 C195.239792,6.8125 195.427163,7 195.364706,7.3125 L195.177336,8.1875 C195.052422,8.5625 194.865052,8.75 194.427855,8.625 C193.491003,8.375 192.241869,8.125 191.180104,8.125 C189.743599,8.125 188.994118,8.375 188.55692,8.8125 C188.18218,9.125 187.869896,9.75 187.869896,10.5 L187.869896,10.75 C187.869896,11.4375 187.99481,12 188.36955,12.375 C188.806747,12.8125 189.368858,13.0625 190.930277,13.375 L191.804671,13.5625 C193.428547,13.875 194.740138,14.3125 195.427163,15.125 C195.926817,15.8125 196.2391,16.75 196.2391,18.0625 L196.2391,18.375 C196.2391,19.5625 195.926817,20.75 195.302249,21.4375 C194.427855,22.5625 192.866436,23.0625 190.617993,23.0625 C188.931661,23 187.182872,22.625 186.121107,22.1875 L186.121107,22.1875 Z" id="Shape"></path>
                    <path d="M19.1742215,65.25 C17.9875433,65.25 17.550346,64.8125 16.9257785,63.1875 C13.7404844,55.1875 9.30605536,43.625 5.80847751,33.5625 L5.43373702,33.5625 C4.37197232,45.9375 3.62249135,58 3.06038062,71.9375 C3.06038062,72.25 2.81055363,72.4375 2.43581315,72.4375 L0.499653979,72.4375 C0.124913495,72.4375 1.77635684e-14,72.3125 1.77635684e-14,71.75 C0.499653979,58.625 1.37404844,45.5 2.56072664,32.6875 C2.68564014,31.5625 3.12283737,31 4.43442907,31 L6.37058824,31 C7.61972318,31 8.05692042,31.3125 8.55657439,32.6875 C11.866782,41.9375 16.3636678,54.0625 19.8612457,62.9375 L20.1110727,62.9375 C23.6086505,54.125 28.1055363,41.9375 31.4157439,32.6875 C31.9153979,31.3125 32.2901384,31 33.6017301,31 L35.5378893,31 C36.7870242,31 37.2866782,31.5 37.4115917,32.6875 C38.6607266,45.5 39.4726644,58.625 39.9723183,71.75 C39.9723183,72.3125 39.8474048,72.4375 39.4726644,72.4375 L37.4740484,72.4375 C37.099308,72.4375 36.849481,72.25 36.849481,71.9375 C36.2873702,58.0625 35.5378893,45.9375 34.4761246,33.5625 L34.1013841,33.5625 C30.6038062,43.625 26.1693772,55.1875 22.984083,63.1875 C22.3595156,64.8125 21.9223183,65.25 20.6731834,65.25 L19.1742215,65.25 L19.1742215,65.25 Z M70.0764706,58.1875 C70.0764706,63.4375 69.3894464,67.9375 66.6413495,70.4375 C64.8925606,72.0625 62.2693772,73.0625 58.2721453,73.0625 C54.2749135,73.0625 51.6517301,72.0625 49.9029412,70.4375 C47.1548443,67.9375 46.4678201,63.4375 46.4678201,58.1875 L46.4678201,55.375 C46.4678201,50.125 47.0923875,45.625 49.9029412,43.125 C51.7141869,41.5625 54.2749135,40.5 58.2721453,40.5 C62.3318339,40.5 64.9550173,41.5 66.6413495,43.125 C69.3894464,45.625 70.0764706,50.125 70.0764706,55.375 L70.0764706,58.1875 L70.0764706,58.1875 Z M49.215917,57.4375 C49.215917,62.6875 49.6531142,65.3125 50.9647059,67.25 C52.4636678,69.4375 54.8370242,70.5 58.2721453,70.5 C61.7072664,70.5 64.0806228,69.4375 65.5795848,67.25 C66.8287197,65.3125 67.3283737,62.6875 67.3283737,57.4375 L67.3283737,56.125 C67.3283737,50.875 66.8911765,48.25 65.5795848,46.3125 C64.0806228,44.125 61.7697232,43.0625 58.2721453,43.0625 C54.8370242,43.0625 52.4636678,44.125 50.9647059,46.3125 C49.7155709,48.25 49.215917,50.875 49.215917,56.125 L49.215917,57.4375 L49.215917,57.4375 Z M100.80519,71.9375 C100.80519,72.3125 100.61782,72.4375 100.305536,72.4375 L98.4942907,72.4375 C98.2444637,72.4375 98.0570934,72.3125 98.0570934,71.9375 L98.0570934,53.1875 C98.0570934,48.1875 97.1202422,45.6875 94.8717993,44.375 C93.6226644,43.625 91.9987889,43.1875 89.750346,43.125 C84.1292388,43 80.6941176,45.5 80.6941176,52.375 L80.6941176,72 C80.6941176,72.375 80.5067474,72.5 80.1944637,72.5 L78.383218,72.5 C78.133391,72.5 77.9460208,72.375 77.9460208,72 L77.9460208,41.5 C77.9460208,41.1875 78.0709343,41.0625 78.383218,41.0625 L79.8197232,41.0625 C80.1320069,41.0625 80.3818339,41.1875 80.3818339,41.5625 L80.5692042,44.5 L80.6316609,44.5 C82.1930796,42 85.2534602,40.4375 89.750346,40.4375 C94.6219723,40.4375 97.7448097,41.9375 99.4311419,44.9375 C100.492907,46.9375 100.867647,49.375 100.867647,52.875 L100.867647,71.9375 L100.80519,71.9375 Z M110.548443,33.5625 C110.548443,33.1875 110.673356,33.0625 111.048097,33.0625 L112.796886,33.0625 C113.171626,33.0625 113.29654,33.1875 113.29654,33.5625 L113.29654,41.0625 L121.103633,41.0625 C121.478374,41.0625 121.603287,41.25 121.603287,41.5 L121.603287,43.1875 C121.603287,43.4375 121.478374,43.625 121.103633,43.625 L113.29654,43.625 L113.29654,62.25 C113.29654,65.1875 113.358997,67 114.483218,68.3125 C115.357612,69.3125 117.043945,70 119.916955,70 L121.853114,70 C122.227855,70 122.352768,70.1875 122.352768,70.5 L122.352768,71.9375 C122.352768,72.25 122.227855,72.4375 121.853114,72.4375 L119.542215,72.4375 C115.79481,72.4375 113.358997,71.375 112.172318,69.875 C110.673356,68 110.485986,66.125 110.485986,62.5625 L110.485986,43.625 L105.9891,43.625 C105.739273,43.625 105.61436,43.5 105.61436,43.25 L105.61436,42 C105.61436,41.6875 105.739273,41.625 105.9891,41.5625 L110.485986,41.0625 L110.485986,33.5625 L110.548443,33.5625 Z M149.521453,55.9375 C149.521453,57.9375 148.896886,58.625 146.89827,58.625 L130.222318,58.625 C130.409689,67.6875 132.845502,70.5 139.40346,70.5 C141.589446,70.5 144.899654,69.9375 147.08564,69 C147.585294,68.8125 147.772664,68.875 147.897578,69.25 L148.272318,70.25 C148.459689,70.8125 148.459689,71 147.772664,71.3125 C145.461765,72.3125 142.0891,73 139.40346,73 C130.534602,73 127.349308,68.75 127.349308,58.1875 L127.349308,55.3125 C127.349308,44.9375 130.597059,40.4375 138.778893,40.4375 C145.961419,40.4375 149.458997,44.1875 149.458997,52 L149.458997,55.9375 L149.521453,55.9375 Z M145.898962,55.9375 C146.523529,55.9375 146.773356,55.9375 146.773356,54.9375 L146.773356,52.9375 C146.773356,45.8125 144.275087,43.0625 138.841349,43.0625 C132.907958,43.0625 130.409689,45.8125 130.284775,55.9375 L145.898962,55.9375 L145.898962,55.9375 Z M170.444464,73 C166.821972,73 161.638062,72.25 158.702595,71.1875 C157.016263,70.625 156.703979,69.8125 156.891349,68.625 L157.703287,63.4375 C157.890657,62.0625 158.640138,61.6875 159.95173,62.1875 C163.574221,63.4375 167.44654,64.1875 170.194637,64.1875 L170.50692,64.1875 C174.504152,64.1875 175.878201,63.1875 175.878201,60.5625 L175.878201,59.9375 C175.878201,57.25 174.629066,56.75 170.819204,56.0625 L166.447232,55.25 C158.952422,53.875 156.703979,50.125 156.703979,44 L156.703979,42.125 C156.703979,38.5 157.64083,35.8125 159.57699,33.9375 C162.012803,31.5625 165.885121,30.5 172.318166,30.5 L172.755363,30.5 C176.565225,30.5 181.062111,31.1875 183.622837,32.1875 C184.934429,32.6875 185.246713,33.375 184.809516,35.0625 L183.747751,39.75 C183.497924,40.9375 182.8109,41.3125 181.374394,40.8125 C178.501384,39.9375 175.815744,39.4375 172.942734,39.4375 L172.692907,39.4375 C168.383391,39.4375 167.134256,40.3125 167.134256,42.625 L167.134256,43.1875 C167.134256,45.25 168.008651,45.875 171.318858,46.5 L176.190484,47.4375 C183.622837,48.9375 186.308478,51.125 186.308478,58.9375 L186.308478,60.5 C186.308478,68.9375 181.998962,73 171.131488,73 L170.444464,73 L170.444464,73 Z M208.043426,64.75 C210.104498,64.75 213.227336,64.3125 214.851211,63.9375 C215.163495,63.875 215.600692,63.75 216.037889,63.75 C216.6,63.75 217.037197,64.1875 217.162111,64.8125 L217.661765,68 C217.786678,68.625 217.911592,69.25 217.911592,69.75 C217.911592,70.5625 217.599308,71 216.22526,71.5 C213.664533,72.375 209.667301,73.0625 206.544464,73.0625 L205.357785,73.0625 C200.298789,73.0625 196.426471,72 194.240484,69.8125 C191.679758,67.25 191.05519,64 191.05519,58.8125 L191.05519,55.25 C191.05519,48.875 192.741522,45.375 194.927509,43.5 C197.051038,41.625 200.361246,40.625 204.983045,40.625 L205.857439,40.625 C210.479239,40.625 213.789446,41.875 215.538235,43.8125 C217.786678,46.3125 218.598616,49.75 218.598616,55.25 L218.598616,58.5625 C218.598616,59.9375 218.036505,60.375 216.724913,60.375 L201.360554,60.375 L201.360554,60.875 C201.360554,63.875 202.859516,64.875 207.293945,64.875 L208.043426,64.875 L208.043426,64.75 Z M208.418166,53.625 C208.980277,53.625 209.167647,53.375 209.167647,52.8125 L209.167647,51.8125 C209.167647,50.5625 208.980277,49.5625 208.54308,48.875 C207.980969,48.0625 206.981661,47.75 205.607612,47.75 L205.045502,47.75 C203.92128,47.75 202.921972,48 202.359862,48.625 C201.735294,49.3125 201.42301,50.4375 201.42301,52.0625 L201.42301,53.6875 L208.418166,53.6875 L208.418166,53.625 Z M232.276644,44.5625 C233.838062,42.0625 235.899135,41.125 239.45917,41.125 L242.019896,41.125 C243.331488,41.125 243.893599,41.4375 243.893599,42.9375 L243.893599,47.625 C243.893599,49.0625 243.456401,49.4375 242.14481,49.4375 L240.208651,49.4375 C237.772837,49.4375 236.211419,49.875 235.337024,50.8125 C234.525087,51.625 234.27526,53.125 234.27526,55.25 L234.27526,70.75 C234.27526,72 233.838062,72.625 232.089273,72.625 L226.218339,72.625 C224.46955,72.625 224.032353,72 224.032353,70.75 L224.032353,43.0625 C224.032353,41.8125 224.532007,41.25 226.218339,41.25 L229.27872,41.25 C230.777682,41.25 231.277336,41.5625 231.589619,42.75 L232.089273,44.75 L232.276644,44.75 L232.276644,44.5625 Z M255.885294,44.5625 C257.446713,42.0625 259.507785,41.125 263.06782,41.125 L265.628547,41.125 C266.940138,41.125 267.502249,41.4375 267.502249,42.9375 L267.502249,47.625 C267.502249,49.0625 267.065052,49.4375 265.75346,49.4375 L263.817301,49.4375 C261.381488,49.4375 259.882526,49.875 258.945675,50.8125 C258.133737,51.625 257.88391,53.125 257.88391,55.25 L257.88391,70.75 C257.88391,72 257.446713,72.625 255.697924,72.625 L249.82699,72.625 C248.078201,72.625 247.641003,72 247.641003,70.75 L247.641003,43.0625 C247.641003,41.8125 248.140657,41.25 249.82699,41.25 L252.88737,41.25 C254.386332,41.25 254.885986,41.5625 255.19827,42.75 L255.697924,44.75 L255.885294,44.75 L255.885294,44.5625 Z M288.550173,69.8125 C287.301038,71.75 284.178201,73 280.180969,73 L279.244118,73 C272.873529,73 268.876298,69.625 268.876298,63.125 L268.876298,62.4375 C268.876298,55.25 272.873529,52.9375 281.492561,52.9375 L281.929758,52.9375 C283.61609,52.9375 285.427336,53.0625 286.426644,53.1875 L286.426644,51.8125 C286.426644,50.5625 286.239273,49.625 285.364879,49 C284.615398,48.5 283.61609,48.3125 281.492561,48.3125 C279.244118,48.3125 276.558478,48.75 274.060208,49.375 C272.436332,49.75 272.061592,49.25 271.874221,48.125 L271.374567,44.75 C271.312111,44.3125 271.249654,43.75 271.249654,43.5 C271.249654,42.6875 271.499481,42.25 272.811073,41.8125 C275.496713,41.0625 279.431488,40.375 283.741003,40.375 C288.862457,40.375 292.172664,41.375 294.233737,43.5 C295.920069,45.25 296.66955,47.75 296.66955,51.5 L296.66955,70.5 C296.66955,71.75 296.169896,72.3125 294.483564,72.3125 L291.48564,72.3125 C289.986678,72.3125 289.487024,72 289.112284,70.8125 L288.737543,69.6875 L288.550173,69.6875 L288.550173,69.8125 Z M286.364187,59.8125 C285.677163,59.6875 284.178201,59.625 283.303806,59.625 L282.616782,59.625 C279.681315,59.625 278.43218,60.125 278.43218,62.5 L278.43218,62.75 C278.43218,65.125 279.806228,65.6875 281.992215,65.6875 L282.429412,65.6875 C283.928374,65.6875 284.865225,65.25 285.427336,64.75 C286.11436,64.125 286.30173,63.3125 286.30173,61.625 L286.30173,59.8125 L286.364187,59.8125 Z M322.714014,70.0625 C322.714014,71.9375 322.339273,72.4375 320.652941,72.4375 L315.531488,72.4375 C310.410035,72.4375 308.036678,71.8125 306.47526,70.0625 C305.163668,68.5625 304.601557,66.4375 304.601557,62.3125 L304.601557,49.0625 L301.166436,49.0625 C299.979758,49.0625 299.542561,48.6875 299.542561,47.4375 L299.542561,44.1875 C299.542561,42.5625 299.854844,42.3125 301.228893,42 L304.601557,41.1875 L304.601557,34.9375 C304.601557,33.75 305.038754,33.0625 306.787543,33.0625 L312.658478,33.0625 C314.407266,33.0625 314.844464,33.6875 314.844464,34.9375 L314.844464,41.0625 L320.153287,41.0625 C321.339965,41.0625 321.839619,41.3125 321.839619,42.9375 L321.839619,47.25 C321.839619,48.875 321.402422,49.125 320.153287,49.125 L314.844464,49.125 L314.844464,61.25 C314.844464,62.3125 314.90692,63 315.344118,63.5 C315.718858,63.9375 316.405882,64.125 317.842388,64.125 L320.652941,64.125 C322.339273,64.125 322.714014,64.625 322.714014,66.5 L322.714014,70.0625 L322.714014,70.0625 Z" id="Shape"></path>
                    <path d="M7.05761246,116.6875 C3.37266436,121.8125 -0.687024221,128.9375 6.37058824,128.875 C17.8626298,128.8125 24.1707612,107.5 15.2394464,108.0625 C7.80709343,108.5 4.99653979,112.0625 4.62179931,112.8125 C4.30951557,113.5625 3.6849481,112.375 5.30882353,110.875 C7.68217993,108.625 14.9896194,105.9375 18.2373702,106.875 C23.5461938,108.4375 20.2359862,129.125 6.55795848,130.125 C-7.18252595,131.125 4.62179931,112.875 10.867474,111.6875 C11.616955,111.4375 9.11868512,113.875 7.05761246,116.6875" id="Shape"></path>
                    <path d="M67.5782007,125.5625 C67.3908304,125.6875 64.1430796,127.4375 61.7072664,128.3125 C59.2714533,129.125 56.8980969,130.125 56.3984429,128.25 C56.2735294,127.75 56.3984429,125.5625 56.5233564,123.8125 C56.5858131,122.75 55.3366782,120.9375 52.7134948,123.0625 C51.1520761,124.4375 48.9036332,127.0625 48.466436,127.625 C47.0923875,129.375 46.7801038,130 46.1555363,129.125 C45.7183391,128.5625 48.0292388,124.5625 47.217301,122.5 C46.8425606,122.0625 45.6558824,121.875 44.1569204,123 C41.6586505,124.875 39.4102076,127.5625 38.2859862,128.625 C37.099308,129.5625 36.5371972,130.1875 35.9126298,130.125 C35.2256055,130.0625 34.4761246,129.3125 35.6628028,127.6875 C36.849481,126.125 39.0979239,121.4375 39.4102076,120.9375 C39.5351211,120.625 41.9084775,119.8125 41.4712803,120.9375 C41.0965398,122.0625 39.2852941,125.6875 39.5351211,125.6875 C39.7849481,125.6875 46.6551903,119.25 47.8418685,119.25 C49.2783737,119.25 49.7155709,121.0625 49.5906574,122.25 C49.5282007,123 49.3408304,123.9375 49.2783737,125 C51.7141869,122.25 54.649654,120.125 55.8987889,119.4375 C57.1479239,118.75 58.7717993,120.375 58.5844291,122.5 C58.4595156,124.25 57.7724913,127.625 58.5844291,128 C59.1465398,128.25 62.3318339,127.5625 64.2679931,126.5 C66.1416955,125.5 67.2034602,124.75 67.5157439,124.8125 C67.7655709,124.9375 67.7655709,125.4375 67.5782007,125.5625" id="Shape"></path>
                    <path d="M81.6934256,126.1875 C79.132699,128.1875 76.9467128,129.8125 71.1382353,130 C66.016782,130.1875 63.7058824,125.4375 67.3908304,122 C71.0133218,118.5625 73.9487889,118.875 74.5733564,119.875 C75.1979239,120.875 74.8231834,121.8125 73.7614187,123.125 C72.699654,124.375 68.0153979,126.4375 68.0153979,126.4375 C68.4525952,127.3125 68.9522491,128.5 71.5129758,128.8125 C76.9467128,129.5 81.0064014,125.6875 81.5685121,125.5 C82.3179931,125.4375 81.6934256,126.1875 81.6934256,126.1875 M72.0126298,123.1875 C73.3242215,122 73.5740484,121 72.8245675,120.75 C72.0750865,120.5 68.2652249,122.875 67.8904844,124.9375 C67.7655709,125.125 70.7010381,124.4375 72.0126298,123.1875" id="Shape"></path>
                    <path d="M97.7448097,126.25 C97.3700692,126.5 90.6871972,131.125 84.566436,129.8125 C78.5081315,128.5625 81.2562284,122.125 82.8176471,119.5 C86.4401384,113.4375 90.499827,110.375 92.1861592,109.25 C93.8724913,108.125 96.183391,107.9375 96.4956747,109.75 C96.8079585,111.5625 93.4352941,115.6875 91.249308,118 C89.0008651,120.3125 83.2548443,124.4375 83.1299308,124.75 C82.5678201,126.6875 84.8787197,128.3125 86.8148789,128.625 C88.6885813,128.9375 92.4984429,128 95.4963668,126.5 C98.5567474,125.125 98.0570934,126 97.7448097,126.25 M83.1923875,122.875 C83.4422145,123.0625 87.2520761,121.0625 91.0619377,117 C94.8093426,112.9375 95.1216263,110.75 94.1847751,110.1875 C93.3103806,109.6875 89.8752595,112.5 86.0029412,117.5625 C83.067474,121.3125 83.1923875,122.875 83.1923875,122.875" id="Shape"></path>
                    <path d="M120.354152,126.375 C116.294464,128.5625 115.98218,129.25 113.10917,128.5 C110.236159,127.6875 109.424221,124.5 108.11263,124.25 C106.801038,124 104.989792,125.4375 103.553287,126.5625 C102.116782,127.625 99.1813149,130.0625 98.3069204,130.0625 C97.8072664,130.0625 96.3707612,128.75 96.5581315,128.125 C96.6205882,127.875 96.7455017,126.75 97.9321799,124.875 C105.364533,113.1875 107.92526,110.5 111.360381,108.375 C114.795502,106.25 117.980796,106.0625 117.980796,108.8125 C118.043253,111.5 113.046713,115.5 110.6109,117.3125 C108.237543,119.125 102.241696,122.25 101.866955,122.375 C101.866955,122.375 101.429758,123.375 100.61782,124.5 C99.8058824,125.6875 99.0564014,127.1875 99.6185121,127.4375 C100.180623,127.6875 101.179931,126.8125 102.054325,126.0625 C102.866263,125.375 107.737889,122 109.299308,122.1875 C110.860727,122.375 111.297924,124 112.796886,125.8125 C114.295848,127.5625 115.919723,127.0625 117.418685,126.625 C118.730277,126.0625 124.476298,124.125 120.354152,126.375 M103.865571,119.375 C104.115398,119.3125 109.861419,117 113.546367,112.9375 C117.293772,108.9375 116.044637,108.75 115.79481,108.5625 C115.607439,108.3125 113.48391,108.3125 109.361765,112.25 C105.239619,116.25 103.865571,119.375 103.865571,119.375" id="Shape"></path>
                    <path d="M139.965571,126.3125 C139.278547,126.5625 137.092561,127.125 135.156401,127.125 C133.220242,127.125 130.347232,125.4375 130.347232,125.4375 C130.347232,125.4375 129.597751,130.0625 123.539446,130.0625 C119.542215,130 119.167474,125 121.790657,122.5625 C124.413841,120.0625 126.72474,120.375 126.72474,120.375 C126.912111,119.6875 128.098789,119 129.472837,120.375 C130.846886,121.75 130.846886,124.375 130.846886,124.375 C130.846886,124.375 130.659516,124.875 132.845502,125.625 C135.031488,126.4375 136.842734,126.4375 139.528374,125.5625 C142.214014,124.6875 140.715052,126.0625 139.965571,126.3125 M129.660208,124.8125 C128.348616,123.8125 127.099481,121.375 127.099481,121.375 C127.099481,121.375 125.97526,121.6875 124.788581,122.375 C123.039792,123.3125 120.166782,127.75 124.351384,128.6875 C127.599135,129.375 129.785121,124.875 129.660208,124.8125" id="Shape"></path>
                    <path d="M140.028028,125.625 C143.525606,123.375 144.087716,119.875 144.087716,119.3125 C144.087716,118.75 144.899654,119.75 145.461765,120.375 C146.086332,121.0625 148.209862,123.1875 148.209862,123.625 C148.209862,124.0625 148.209862,127.8125 150.645675,128.375 C153.830969,129.1875 157.141176,127 158.265398,126.1875 C159.327163,125.375 159.57699,126.3125 158.889965,126.75 C158.265398,127.25 157.26609,127.9375 155.829585,128.625 C154.455536,129.3125 152.26955,130.375 150.208478,130 C148.147405,129.5625 146.773356,127.875 146.773356,124.3125 C146.773356,123.5625 144.649827,122.75 144.150173,122.9375 C143.712976,123.125 141.589446,125.625 139.778201,126.5 C139.778201,126.5 139.528374,126.625 139.341003,126.5 C139.153633,126.375 139.02872,126.25 139.653287,125.8125 L140.028028,125.625 L140.028028,125.625 Z" id="Shape"></path>
                    <path d="M190.49308,128.6875 C184.622145,131.1875 180.250173,129.5 179.563149,128.4375 C178.813668,127.25 179.625606,126.8125 180.562457,127.9375 C181.561765,129.125 183.060727,129.125 185.246713,128.8125 C187.370242,128.4375 191.117647,127.5625 191.492388,123.4375 C191.742215,120.9375 183.747751,123.875 180.12526,125.0625 C179.125952,126.375 178.126644,127.8125 177.064879,129.125 C176.690138,129.5625 171.193945,136.875 167.508997,141.3125 C163.886505,145.6875 160.326471,143.625 159.889273,142.5 C159.514533,141.3125 159.139792,139.75 161.825433,136.375 C164.698443,132.625 169.320242,129.375 170.756747,128.5 C172.193253,127.6875 178.376471,123.9375 178.376471,123.9375 C178.938581,123.375 181.686678,118.5625 182.248789,118.625 C183.248097,118.6875 183.810208,119.25 183.872664,119.625 C183.872664,119.625 182.873356,121.125 181.499308,123.125 C181.499308,123.125 186.308478,120.5 190.930277,120.5625 C194.989965,120.5625 195.177336,126.75 190.49308,128.6875 L190.49308,128.6875 Z M176.690138,126.5 C176.690138,126.5 164.323702,133.1875 162.325087,137.625 C160.326471,142.0625 162.387543,142.625 164.073875,141.8125 C165.760208,140.875 175.31609,128.8125 175.565917,127.875 L176.690138,126.5 L176.690138,126.5 Z" id="Shape"></path>
                    <path d="M217.849135,126.3125 C217.162111,126.5625 214.976125,127.125 213.039965,127.125 C211.103806,127.125 208.230796,125.4375 208.230796,125.4375 C208.230796,125.4375 207.481315,130.0625 201.42301,130.0625 C197.425779,130 197.051038,125 199.674221,122.5625 C202.297405,120.0625 204.608304,120.375 204.608304,120.375 C204.795675,119.6875 205.982353,119 207.356401,120.375 C208.73045,121.75 208.73045,124.375 208.73045,124.375 C208.73045,124.375 208.54308,124.875 210.729066,125.625 C212.915052,126.4375 214.726298,126.4375 217.411938,125.5625 C220.097578,124.6875 218.536159,126.0625 217.849135,126.3125 M207.481315,124.8125 C206.169723,123.8125 204.920588,121.375 204.920588,121.375 C204.920588,121.375 203.796367,121.6875 202.609689,122.375 C200.8609,123.3125 197.987889,127.75 202.172491,128.6875 C205.420242,129.375 207.668685,124.875 207.481315,124.8125" id="Shape"></path>
                    <path d="M217.911592,125.625 C221.40917,123.375 221.97128,119.875 221.97128,119.3125 C221.97128,118.75 222.783218,119.75 223.345329,120.375 C223.969896,121.0625 226.093426,123.1875 226.093426,123.625 C226.093426,124.0625 226.093426,127.8125 228.529239,128.375 C231.714533,129.1875 235.02474,127 236.148962,126.1875 C237.210727,125.375 237.460554,126.3125 236.773529,126.75 C236.148962,127.25 235.149654,127.9375 233.713149,128.625 C232.3391,129.3125 230.153114,130.375 228.092042,130 C226.030969,129.5625 224.65692,127.875 224.65692,124.3125 C224.65692,123.5625 222.533391,122.75 222.033737,122.9375 C221.59654,123.125 219.47301,125.625 217.661765,126.5 C217.661765,126.5 217.411938,126.625 217.162111,126.5 C216.97474,126.375 216.849827,126.25 217.474394,125.8125 L217.911592,125.625 L217.911592,125.625 Z" id="Shape"></path>
                    <path d="M257.88391,120.5625 C257.88391,120.9375 255.38564,127.0625 255.947751,127.375 C256.447405,127.6875 257.69654,127.5625 259.570242,126.375 C261.443945,125.25 264.129585,122.8125 264.691696,121.0625 C265.253806,119.375 266.253114,118.75 266.815225,119.0625 C267.314879,119.375 266.440484,121.375 266.440484,121.375 C266.440484,121.375 267.752076,124.4375 270.437716,124.8125 C273.185813,125.25 274.684775,124.75 275.74654,124.1875 C276.745848,123.625 277.307958,125.1875 274.185121,125.75 C270.999827,126.25 268.751384,125.375 267.189965,124.5 C265.815917,123.6875 265.253806,122.5625 265.066436,122.6875 C264.941522,122.75 261.881142,125.9375 260.069896,127.0625 C258.258651,128.25 255.760381,130.375 254.573702,129.9375 C253.387024,129.5 253.886678,127.625 254.573702,125.75 C255.57301,122.9375 255.073356,119.75 256.322491,120.0625 C257.071972,120.1875 257.88391,120.1875 257.88391,120.5625" id="Shape"></path>
                    <path d="M295.482872,126.3125 C294.795848,126.5625 292.609862,127.125 290.673702,127.125 C288.737543,127.125 285.864533,125.4375 285.864533,125.4375 C285.864533,125.4375 285.115052,130.0625 279.056747,130.0625 C275.059516,130 274.684775,125 277.307958,122.5625 C279.931142,120.0625 282.242042,120.375 282.242042,120.375 C282.429412,119.6875 283.61609,119 284.990138,120.375 C286.364187,121.75 286.364187,124.375 286.364187,124.375 C286.364187,124.375 286.176817,124.875 288.362803,125.625 C290.548789,126.4375 292.360035,126.4375 295.045675,125.5625 C297.731315,124.6875 296.169896,126.0625 295.482872,126.3125 M285.115052,124.8125 C283.80346,123.8125 282.554325,121.375 282.554325,121.375 C282.554325,121.375 281.430104,121.6875 280.243426,122.375 C278.494637,123.3125 275.621626,127.75 279.806228,128.6875 C283.053979,129.375 285.239965,124.875 285.115052,124.8125" id="Shape"></path>
                    <path d="M302.165744,121.3125 C301.166436,121.625 297.856228,123.375 297.106747,124.75 C296.29481,126.125 296.169896,128.75 299.042907,128.5625 C301.915917,128.3125 306.66263,127.0625 308.786159,126.0625 C310.847232,125.125 313.033218,124.5 311.721626,125.25 C310.410035,126 307.786851,127.5625 305.913149,128.1875 C304.039446,128.8125 298.355882,130.3125 296.66955,129.9375 C294.920761,129.5 293.234429,126.9375 296.919377,123.5 C300.604325,120 304.226817,118.9375 305.101211,119.5 C305.975606,120.125 306.038062,121.25 305.663322,121.25 C305.226125,121.3125 303.165052,121 302.165744,121.3125" id="Shape"></path>
                    <path d="M325.337197,126.1875 C322.776471,128.1875 320.590484,129.8125 314.782007,130 C309.660554,130.1875 307.349654,125.4375 311.034602,122 C314.657093,118.5625 317.592561,118.875 318.217128,119.875 C318.841696,120.875 318.529412,121.8125 317.40519,123.125 C316.343426,124.375 311.65917,126.4375 311.65917,126.4375 C312.158824,127.3125 312.596021,128.5 315.156747,128.8125 C320.590484,129.5 324.650173,125.6875 325.212284,125.5 C326.024221,125.4375 325.337197,126.1875 325.337197,126.1875 M315.656401,123.1875 C316.967993,122 317.21782,121 316.468339,120.75 C315.718858,120.5 311.908997,122.875 311.534256,124.9375 C311.409343,125.125 314.34481,124.4375 315.656401,123.1875" id="Shape"></path>
                    <path d="M314.219896,116.125 C316.343426,115.875 317.842388,114.5625 319.653633,113.5 L318.154671,113.5 C318.529412,114.8125 318.904152,116.1875 320.528028,116.1875 C321.152595,116.1875 322.526644,115.1875 321.277509,115.25 C320.465571,115.25 320.215744,113.625 320.028374,113 C319.90346,112.5 318.779239,112.875 318.529412,113 C317.280277,113.75 316.031142,114.9375 314.53218,115.125 C313.657785,115.25 312.908304,116.25 314.219896,116.125" id="Shape"></path>
                </g>
            </g>
        </g>
    </g>
</svg>